<svg width="88" height="88" viewBox="0 0 88 88" fill="none" xmlns="http://www.w3.org/2000/svg">
<path d="M84.9921 27.3067H71.222L79.4445 18.153C79.901 17.6441 80.1326 16.9888 80.0964 16.3067C80.0594 15.6239 79.7593 14.9968 79.2511 14.5402L75.7149 11.3646C74.6655 10.422 73.0448 10.5086 72.1028 11.5579L57.9561 27.3067H33.335C32.6233 27.3067 32.0459 27.8834 32.0459 28.5957C32.0459 29.3081 32.6233 29.8848 33.335 29.8848H55.6404L49.8893 36.2871C49.4328 36.7954 49.2018 37.4513 49.2381 38.1334C49.2428 38.214 49.2509 38.2932 49.2623 38.3725L47.2857 43.7174C46.9923 44.5109 47.2092 45.3891 47.8389 45.9544C48.225 46.3015 48.7124 46.4815 49.2059 46.4815C49.5161 46.4815 49.8289 46.4103 50.1216 46.2653L55.2289 43.7261C55.2611 43.7274 55.2927 43.7308 55.3256 43.7308C55.3719 43.7308 55.4182 43.7294 55.4652 43.7268C56.1473 43.6898 56.7744 43.3904 57.2316 42.8815L68.9064 29.8848H84.9921C85.2291 29.8848 85.4218 30.0775 85.4218 30.3145V79.9796C85.4218 80.2166 85.2291 80.4093 84.9921 80.4093H75.6142C74.9025 80.4093 74.3251 80.986 74.3251 81.6984C74.3251 82.41 74.9025 82.9874 75.6142 82.9874H84.9921C86.6505 82.9874 87.9999 81.638 87.9999 79.9796V30.3145C87.9999 28.6555 86.6505 27.3067 84.9921 27.3067ZM77.5135 16.445L75.9821 18.1489L72.4761 15.0001L74.0076 13.2955L77.5135 16.445ZM70.7534 16.9183L71.5476 17.6313L52.6152 38.7081L51.8209 37.9945L70.7534 16.9183ZM51.1066 40.8183L52.5957 42.1564L50.1653 43.3642L51.1066 40.8183ZM55.3269 41.1439L54.5327 40.4309L73.4658 19.3541L74.2593 20.0671L55.3269 41.1439Z" fill="#6C3082"/>
<path d="M70.0008 80.4093H12.0219C6.81458 80.4093 2.57812 76.1729 2.57812 70.9656V70.2841C2.57812 65.0768 6.8139 60.8411 12.0212 60.8411H14.6705C16.3295 60.8411 17.6783 59.4916 17.6783 57.8333V29.8848H27.7216C28.4339 29.8848 29.0106 29.3074 29.0106 28.5957C29.0106 27.8834 28.4339 27.3066 27.7216 27.3066H17.6783V22.8305C17.6783 22.1188 17.1016 21.5414 16.3892 21.5414C15.6776 21.5414 15.1002 22.1188 15.1002 22.8305V57.8333C15.1002 58.0703 14.9075 58.2629 14.6705 58.2629H12.0212C8.19562 58.2629 4.78094 60.0596 2.57812 62.8532V17.1781C2.57812 11.9708 6.81458 7.73438 12.0219 7.73438H14.6705C14.9075 7.73438 15.1002 7.92706 15.1002 8.16406V17.217C15.1002 17.9294 15.6776 18.5061 16.3892 18.5061C17.1016 18.5061 17.6783 17.9294 17.6783 17.217V8.16406C17.6783 6.50574 16.3295 5.15625 14.6705 5.15625H12.0219C5.39325 5.15625 0 10.5488 0 17.1781V70.9656C0 77.5942 5.39325 82.9874 12.0219 82.9874H70.0008C70.7131 82.9874 71.2899 82.41 71.2899 81.6984C71.2899 80.986 70.7131 80.4093 70.0008 80.4093Z" fill="#6C3082"/>
<path d="M68.7836 40.9156C63.5179 40.9156 59.2003 45.0433 58.8914 50.2325H52.957C52.2454 50.2325 51.668 50.8099 51.668 51.5215V66.2464C51.668 66.9587 52.2454 67.5355 52.957 67.5355H67.6819C68.3942 67.5355 68.9709 66.9587 68.9709 66.2464V60.7357C74.3508 60.6349 78.696 56.2307 78.696 50.828C78.696 45.3622 74.2494 40.9156 68.7836 40.9156ZM66.3935 57.7601C64.1356 56.9792 62.3752 55.1255 61.7247 52.8106H66.3935V57.7601ZM54.2461 64.9573V52.8106H59.0714C59.834 56.5516 62.7103 59.5312 66.3935 60.447V64.9573H54.2461ZM68.9716 58.1575V51.5215C68.9716 50.8099 68.3942 50.2325 67.6826 50.2325H61.4763C61.7804 46.466 64.9406 43.4938 68.7843 43.4938C72.8281 43.4938 76.1185 46.7836 76.1185 50.828C76.1179 54.8093 72.9288 58.0575 68.9716 58.1575Z" fill="#6C3082"/>
<path d="M73.5725 61.6306C72.8602 61.6306 72.2834 62.2073 72.2834 62.9197C72.2834 63.6313 72.8602 64.2087 73.5725 64.2087H76.44C77.1523 64.2087 77.7291 63.6313 77.7291 62.9197C77.7291 62.2073 77.1523 61.6306 76.44 61.6306H73.5725Z" fill="#6C3082"/>
<path d="M77.7291 66.2463C77.7291 65.5347 77.1523 64.9573 76.44 64.9573H73.5725C72.8602 64.9573 72.2834 65.5347 72.2834 66.2463C72.2834 66.9587 72.8602 67.5354 73.5725 67.5354H76.44C77.1523 67.5354 77.7291 66.9587 77.7291 66.2463Z" fill="#6C3082"/>
<path d="M23.5469 40.4021H25.6094C26.321 40.4021 26.8984 39.8254 26.8984 39.113C26.8984 38.4014 26.321 37.824 25.6094 37.824H23.5469C22.8352 37.824 22.2578 38.4014 22.2578 39.113C22.2578 39.8254 22.8352 40.4021 23.5469 40.4021Z" fill="#6C3082"/>
<path d="M23.5469 44.1577H33.4975C34.2098 44.1577 34.7866 43.5803 34.7866 42.8687C34.7866 42.1563 34.2098 41.5796 33.4975 41.5796H23.5469C22.8352 41.5796 22.2578 42.1563 22.2578 42.8687C22.2578 43.5803 22.8352 44.1577 23.5469 44.1577Z" fill="#6C3082"/>
<path d="M31.4351 40.4021H33.4976C34.2099 40.4021 34.7866 39.8254 34.7866 39.113C34.7866 38.4014 34.2099 37.824 33.4976 37.824H31.4351C30.7234 37.824 30.146 38.4014 30.146 39.113C30.146 39.8254 30.7234 40.4021 31.4351 40.4021Z" fill="#6C3082"/>
<path d="M41.3857 37.824H39.3232C38.6116 37.824 38.0342 38.4014 38.0342 39.113C38.0342 39.8254 38.6116 40.4021 39.3232 40.4021H41.3857C42.0981 40.4021 42.6748 39.8254 42.6748 39.113C42.6748 38.4014 42.0981 37.824 41.3857 37.824Z" fill="#6C3082"/>
<path d="M23.5469 47.8853H33.4975C34.2098 47.8853 34.7866 47.3079 34.7866 46.5962C34.7866 45.8839 34.2098 45.3071 33.4975 45.3071H23.5469C22.8352 45.3071 22.2578 45.8839 22.2578 46.5962C22.2578 47.3079 22.8352 47.8853 23.5469 47.8853Z" fill="#6C3082"/>
<path d="M22.2578 50.3231C22.2578 51.0355 22.8352 51.6122 23.5469 51.6122H39.3231C40.0355 51.6122 40.6122 51.0355 40.6122 50.3231C40.6122 49.6115 40.0355 49.0341 39.3231 49.0341H23.5469C22.8352 49.0341 22.2578 49.6115 22.2578 50.3231Z" fill="#6C3082"/>
<path d="M42.6747 54.0507C42.6747 53.339 42.098 52.7616 41.3856 52.7616H23.5469C22.8352 52.7616 22.2578 53.339 22.2578 54.0507C22.2578 54.763 22.8352 55.3397 23.5469 55.3397H41.3856C42.098 55.3397 42.6747 54.763 42.6747 54.0507Z" fill="#6C3082"/>
<path d="M28.3882 60.0562C28.3882 59.3438 27.8109 58.7671 27.0992 58.7671H23.5469C22.8352 58.7671 22.2578 59.3438 22.2578 60.0562V63.6078C22.2578 64.3201 22.8352 64.8969 23.5469 64.8969H27.0992C27.8109 64.8969 28.3882 64.3201 28.3882 63.6078V60.0562ZM25.8101 62.3194H24.8359V61.3452H25.8101V62.3194Z" fill="#6C3082"/>
<path d="M36.9107 60.0562C36.9107 59.3438 36.3333 58.7671 35.6216 58.7671H32.0693C31.3577 58.7671 30.7803 59.3438 30.7803 60.0562V63.6078C30.7803 64.3201 31.3577 64.8969 32.0693 64.8969H35.6216C36.3333 64.8969 36.9107 64.3201 36.9107 63.6078V60.0562ZM34.3326 62.3194H33.3584V61.3452H34.3326V62.3194Z" fill="#6C3082"/>
<path d="M45.4341 60.0562C45.4341 59.3438 44.8568 58.7671 44.1451 58.7671H40.5928C39.8804 58.7671 39.3037 59.3438 39.3037 60.0562V63.6078C39.3037 64.3201 39.8804 64.8969 40.5928 64.8969H44.1451C44.8568 64.8969 45.4341 64.3201 45.4341 63.6078V60.0562ZM42.856 62.3194H41.8818V61.3452H42.856V62.3194Z" fill="#6C3082"/>
<path d="M27.0992 67.8195H23.5469C22.8352 67.8195 22.2578 68.3962 22.2578 69.1085V72.6602C22.2578 73.3725 22.8352 73.9492 23.5469 73.9492H27.0992C27.8109 73.9492 28.3882 73.3725 28.3882 72.6602V69.1085C28.3882 68.3962 27.8109 67.8195 27.0992 67.8195ZM25.8101 71.3711H24.8359V70.3969H25.8101V71.3711Z" fill="#6C3082"/>
<path d="M35.6216 67.8195H32.0693C31.3577 67.8195 30.7803 68.3962 30.7803 69.1085V72.6602C30.7803 73.3725 31.3577 73.9492 32.0693 73.9492H35.6216C36.3333 73.9492 36.9107 73.3725 36.9107 72.6602V69.1085C36.9107 68.3962 36.3333 67.8195 35.6216 67.8195ZM34.3326 71.3711H33.3584V70.3969H34.3326V71.3711Z" fill="#6C3082"/>
<path d="M40.5928 73.9493H44.1451C44.8568 73.9493 45.4341 73.3726 45.4341 72.6602V69.1079C45.4341 68.3962 44.8568 67.8188 44.1451 67.8188H40.5928C39.8804 67.8188 39.3037 68.3962 39.3037 69.1079V72.6602C39.3037 73.3726 39.8804 73.9493 40.5928 73.9493ZM41.8818 70.3976H42.856V71.3712H41.8818V70.3976Z" fill="#6C3082"/>
</svg>
