<svg width="88" height="88" viewBox="0 0 88 88" fill="none" xmlns="http://www.w3.org/2000/svg">
<g clip-path="url(#clip0)">
<path d="M9.49811 4.94336C7.41412 4.94336 5.71887 6.63928 5.71887 8.7226C5.71887 10.8066 7.41412 12.5025 9.49811 12.5025C11.5821 12.5025 13.278 10.8066 13.278 8.7226C13.278 6.63928 11.5821 4.94336 9.49811 4.94336ZM9.49811 9.92639C8.83478 9.92639 8.29431 9.3866 8.29431 8.7226C8.29431 8.05927 8.83478 7.51947 9.49811 7.51947C10.1621 7.51947 10.7019 8.05927 10.7019 8.7226C10.7019 9.3866 10.1621 9.92639 9.49811 9.92639Z" fill="#6C3082"/>
<path d="M19.1211 4.94336C17.0371 4.94336 15.3412 6.63928 15.3412 8.7226C15.3412 10.8066 17.0371 12.5025 19.1211 12.5025C21.2051 12.5025 22.9003 10.8066 22.9003 8.7226C22.9003 6.63928 21.2051 4.94336 19.1211 4.94336ZM19.1211 9.92639C18.4571 9.92639 17.9173 9.3866 17.9173 8.7226C17.9173 8.05927 18.4571 7.51947 19.1211 7.51947C19.7844 7.51947 20.3249 8.05927 20.3249 8.7226C20.3249 9.3866 19.7844 9.92639 19.1211 9.92639Z" fill="#6C3082"/>
<path d="M28.7433 4.94336C26.6594 4.94336 24.9641 6.63928 24.9641 8.7226C24.9641 10.8066 26.6594 12.5025 28.7433 12.5025C30.8273 12.5025 32.5233 10.8066 32.5233 8.7226C32.5233 6.63928 30.8273 4.94336 28.7433 4.94336ZM28.7433 9.92639C28.08 9.92639 27.5396 9.3866 27.5396 8.7226C27.5396 8.05927 28.08 7.51947 28.7433 7.51947C29.4073 7.51947 29.9471 8.05927 29.9471 8.7226C29.9471 9.3866 29.4073 9.92639 28.7433 9.92639Z" fill="#6C3082"/>
<path d="M86.6141 25.4072C87.3258 25.4072 87.9025 24.8305 87.9025 24.1188L87.9998 5.66784C87.9998 2.54254 85.4573 0 82.332 0H5.66851C2.54321 0 0 2.54321 0 5.66851V67.9845C0 70.8171 2.08868 73.1709 4.80645 73.5872C5.08776 73.6308 5.37578 73.653 5.66851 73.653H30.7286V78.2721H26.84C24.2464 78.2721 22.1356 80.3823 22.1356 82.9758V85.7587C22.1356 86.9424 23.0983 87.9052 24.282 87.9052H30.4238C31.1348 87.9052 31.7115 87.3284 31.7115 86.6168C31.7115 85.9058 31.1348 85.3291 30.4238 85.3291H24.7117V82.9758C24.7117 81.8023 25.6664 80.8476 26.84 80.8476H61.0625C62.2361 80.8476 63.1908 81.8023 63.1908 82.9758V85.3291H38.4194C37.7084 85.3291 37.1316 85.9058 37.1316 86.6168C37.1316 87.3284 37.7084 87.9052 38.4194 87.9052H63.6198C64.8035 87.9052 65.7662 86.9424 65.7662 85.7587V82.9758C65.7662 80.3823 63.6561 78.2721 61.0618 78.2721H57.1732V73.653H82.234C82.5267 73.653 82.8147 73.6308 83.0954 73.5872C85.8138 73.1709 87.9018 70.8171 87.9018 67.9845V32.1043C87.9018 31.3926 87.3258 30.8159 86.6141 30.8159C85.9031 30.8159 85.3264 31.3926 85.3264 32.1043V60.5234H45.0674V17.5191H85.3264V24.1188C85.3264 24.8305 85.9031 25.4072 86.6141 25.4072ZM2.67077 17.5191H42.4913V60.4307H2.67077V17.5191ZM54.5977 78.2721H33.3047V73.653H54.5977V78.2721ZM85.3264 63.0995V67.9845C85.3264 69.5831 84.1071 70.9023 82.5495 71.0614C82.4454 71.0715 82.3407 71.0769 82.234 71.0769H5.66851C5.56176 71.0769 5.45635 71.0715 5.35296 71.0614C3.79534 70.9023 2.57611 69.5831 2.57611 67.9845V63.0995H85.3264ZM43.7797 14.943H2.67077V5.66784C2.67077 3.96319 4.05785 2.57611 5.76317 2.57611H82.234C83.9393 2.57611 85.3264 3.96319 85.3264 5.66851V14.943H43.7797Z" fill="#6C3082"/>
<path d="M8.06207 22.6519H14.5873C15.2983 22.6519 15.875 22.0758 15.875 21.3641C15.875 20.6531 15.2983 20.0764 14.5873 20.0764H8.06207C7.3504 20.0764 6.77368 20.6531 6.77368 21.3641C6.77368 22.0758 7.3504 22.6519 8.06207 22.6519Z" fill="#6C3082"/>
<path d="M19.0519 22.6519H22.1429C22.8539 22.6519 23.4307 22.0758 23.4307 21.3641C23.4307 20.6531 22.8539 20.0764 22.1429 20.0764H19.0519C18.3402 20.0764 17.7642 20.6531 17.7642 21.3641C17.7642 22.0758 18.3402 22.6519 19.0519 22.6519Z" fill="#6C3082"/>
<path d="M17.8495 24.6224H13.5566C12.8456 24.6224 12.2689 25.1992 12.2689 25.9108C12.2689 26.6218 12.8456 27.1985 13.5566 27.1985H17.8495C18.5612 27.1985 19.1379 26.6218 19.1379 25.9108C19.1379 25.1992 18.5612 24.6224 17.8495 24.6224Z" fill="#6C3082"/>
<path d="M38.1125 29.3315H33.8197C33.1087 29.3315 32.532 29.9083 32.532 30.6193C32.532 31.3303 33.1087 31.907 33.8197 31.907H38.1125C38.8242 31.907 39.4003 31.3303 39.4003 30.6193C39.4003 29.9083 38.8242 29.3315 38.1125 29.3315Z" fill="#6C3082"/>
<path d="M20.5115 25.9108C20.5115 26.6218 21.0882 27.1985 21.7992 27.1985H32.1023C32.814 27.1985 33.3907 26.6218 33.3907 25.9108C33.3907 25.1992 32.814 24.6224 32.1023 24.6224H21.7992C21.0882 24.6224 20.5115 25.1992 20.5115 25.9108Z" fill="#6C3082"/>
<path d="M16.3899 30.6193C16.3899 31.3303 16.9666 31.907 17.6783 31.907H19.9106C20.6216 31.907 21.1984 31.3303 21.1984 30.6193C21.1984 29.9083 20.6216 29.3315 19.9106 29.3315H17.6783C16.9666 29.3315 16.3899 29.9083 16.3899 30.6193Z" fill="#6C3082"/>
<path d="M29.87 31.907C30.5817 31.907 31.1584 31.3303 31.1584 30.6193C31.1584 29.9083 30.5817 29.3315 29.87 29.3315H23.6885C22.9769 29.3315 22.4001 29.9083 22.4001 30.6193C22.4001 31.3303 22.9769 31.907 23.6885 31.907H29.87Z" fill="#6C3082"/>
<path d="M15.875 47.3119C15.875 46.6002 15.2983 46.0242 14.5873 46.0242H8.06207C7.3504 46.0242 6.77368 46.6002 6.77368 47.3119C6.77368 48.0229 7.3504 48.5996 8.06207 48.5996H14.5873C15.2983 48.5996 15.875 48.0229 15.875 47.3119Z" fill="#6C3082"/>
<path d="M19.0519 46.0242C18.3402 46.0242 17.7642 46.6002 17.7642 47.3119C17.7642 48.0229 18.3402 48.5996 19.0519 48.5996H22.1429C22.8539 48.5996 23.4307 48.0229 23.4307 47.3119C23.4307 46.6002 22.8539 46.0242 22.1429 46.0242H19.0519Z" fill="#6C3082"/>
<path d="M19.1379 51.8579C19.1379 51.1469 18.5612 50.5702 17.8495 50.5702H13.5566C12.8456 50.5702 12.2689 51.1469 12.2689 51.8579C12.2689 52.5696 12.8456 53.1463 13.5566 53.1463H17.8495C18.5612 53.1463 19.1379 52.5696 19.1379 51.8579Z" fill="#6C3082"/>
<path d="M19.9106 55.2793H17.6783C16.9666 55.2793 16.3899 55.8553 16.3899 56.567C16.3899 57.278 16.9666 57.8547 17.6783 57.8547H19.9106C20.6216 57.8547 21.1984 57.278 21.1984 56.567C21.1984 55.8553 20.6216 55.2793 19.9106 55.2793Z" fill="#6C3082"/>
<path d="M38.1125 55.2793H33.8197C33.1087 55.2793 32.532 55.8553 32.532 56.567C32.532 57.278 33.1087 57.8547 33.8197 57.8547H38.1125C38.8242 57.8547 39.4003 57.278 39.4003 56.567C39.4003 55.8553 38.8242 55.2793 38.1125 55.2793Z" fill="#6C3082"/>
<path d="M33.3907 51.8579C33.3907 51.1469 32.814 50.5702 32.1023 50.5702H21.7992C21.0882 50.5702 20.5115 51.1469 20.5115 51.8579C20.5115 52.5696 21.0882 53.1463 21.7992 53.1463H32.1023C32.814 53.1463 33.3907 52.5696 33.3907 51.8579Z" fill="#6C3082"/>
<path d="M29.87 55.2793H23.6885C22.9769 55.2793 22.4001 55.8553 22.4001 56.567C22.4001 57.278 22.9769 57.8547 23.6885 57.8547H29.87C30.5817 57.8547 31.1584 57.278 31.1584 56.567C31.1584 55.8553 30.5817 55.2793 29.87 55.2793Z" fill="#6C3082"/>
<path d="M8.06207 37.8085H11.6681C12.3791 37.8085 12.9558 37.2318 12.9558 36.5208C12.9558 35.8091 12.3791 35.233 11.6681 35.233H8.06207C7.3504 35.233 6.77368 35.8091 6.77368 36.5208C6.77368 37.2318 7.3504 37.8085 8.06207 37.8085Z" fill="#6C3082"/>
<path d="M29.7841 36.5208C29.7841 35.8091 29.208 35.233 28.4963 35.233H15.274C14.563 35.233 13.9863 35.8091 13.9863 36.5208C13.9863 37.2318 14.563 37.8085 15.274 37.8085H28.4963C29.208 37.8085 29.7841 37.2318 29.7841 36.5208Z" fill="#6C3082"/>
<path d="M27.3805 41.0668C27.3805 40.3558 26.8038 39.7791 26.0921 39.7791H13.5566C12.8456 39.7791 12.2689 40.3558 12.2689 41.0668C12.2689 41.7784 12.8456 42.3552 13.5566 42.3552H26.0921C26.8038 42.3552 27.3805 41.7784 27.3805 41.0668Z" fill="#6C3082"/>
<path d="M29.6988 42.3552H32.1024C32.814 42.3552 33.3907 41.7784 33.3907 41.0668C33.3907 40.3558 32.814 39.7791 32.1024 39.7791H29.6988C28.9871 39.7791 28.4104 40.3558 28.4104 41.0668C28.4104 41.7784 28.9871 42.3552 29.6988 42.3552Z" fill="#6C3082"/>
<path d="M58.9559 49.7839H50.7139C50.0023 49.7839 49.4255 50.3607 49.4255 51.0717C49.4255 51.7833 50.0023 52.3594 50.7139 52.3594H58.9559C59.6675 52.3594 60.2443 51.7833 60.2443 51.0717C60.2443 50.3607 59.6675 49.7839 58.9559 49.7839Z" fill="#6C3082"/>
<path d="M79.9058 49.7839H63.5924C62.8814 49.7839 62.3047 50.3607 62.3047 51.0717C62.3047 51.7833 62.8814 52.3594 63.5924 52.3594H79.9058C80.6174 52.3594 81.1942 51.7833 81.1942 51.0717C81.1942 50.3607 80.6174 49.7839 79.9058 49.7839Z" fill="#6C3082"/>
<path d="M58.9559 54.7637H50.7139C50.0023 54.7637 49.4255 55.3404 49.4255 56.0521C49.4255 56.7631 50.0023 57.3398 50.7139 57.3398H58.9559C59.6675 57.3398 60.2443 56.7631 60.2443 56.0521C60.2443 55.3404 59.6675 54.7637 58.9559 54.7637Z" fill="#6C3082"/>
<path d="M79.9058 54.7637H63.5924C62.8814 54.7637 62.3047 55.3404 62.3047 56.0521C62.3047 56.7631 62.8814 57.3398 63.5924 57.3398H79.9058C80.6174 57.3398 81.1942 56.7631 81.1942 56.0521C81.1942 55.3404 80.6174 54.7637 79.9058 54.7637Z" fill="#6C3082"/>
<path d="M81.2331 23.4045C81.2331 21.5696 79.7406 20.0764 77.9057 20.0764H52.7139C50.879 20.0764 49.3859 21.5696 49.3859 23.4045V40.8471V40.8484V43.8992C49.3859 45.7341 50.879 47.2273 52.7139 47.2273H77.9057C79.7406 47.2273 81.2331 45.7341 81.2331 43.8992V23.4045ZM78.6577 43.8992C78.6577 44.3141 78.3199 44.6512 77.9057 44.6512H52.7139C52.299 44.6512 51.962 44.3141 51.962 43.8992V41.3815L61.395 31.9532L67.9054 39.2902C68.3774 39.8226 69.1918 39.8709 69.7235 39.3989C70.2559 38.9269 70.3043 38.1132 69.8323 37.5808L69.2415 36.9155L72.1526 34.0057L78.6577 41.3372V43.8992ZM78.6577 37.4559L73.7008 31.87C73.3295 31.4517 72.7958 31.202 72.2365 31.1852C71.6746 31.1691 71.1294 31.3859 70.7339 31.7814L67.5287 34.9846L62.9432 29.8176C62.5719 29.3986 62.0381 29.1489 61.4789 29.1328C60.9203 29.1173 60.3718 29.3328 59.9763 29.7283L51.962 37.7393V23.4045C51.962 22.9896 52.299 22.6519 52.7139 22.6519H77.9057C78.3206 22.6519 78.6577 22.9896 78.6577 23.4045V37.4559Z" fill="#6C3082"/>
</g>
<defs>
<clipPath id="clip0">
<rect width="88" height="88" fill="white"/>
</clipPath>
</defs>
</svg>
